<?xml version="1.0" encoding="utf-8"?><!-- Uploaded to: SVG Repo, www.svgrepo.com, Generator: SVG Repo Mixer Tools -->
<svg fill="#000000" width="800px" height="800px" viewBox="0 0 24 24" id="egg" data-name="Flat Line" xmlns="http://www.w3.org/2000/svg" class="icon flat-line"><path id="secondary" d="M16.88,7.5C15.71,5.05,14.37,3,12,3S8.29,5.05,7.12,7.5,5,12,5,15c0,3.31,3.14,6,7,6s7-2.69,7-6C19,12,18,9.88,16.88,7.5ZM12,17a3,3,0,1,1,3-3A3,3,0,0,1,12,17Z" style="fill: rgb(44, 169, 188); stroke-width: 2;"></path><path id="primary" d="M12,17a3,3,0,1,1,3-3A3,3,0,0,1,12,17Zm4.88-9.5C15.71,5.05,14.37,3,12,3S8.29,5.05,7.12,7.5,5,12,5,15c0,3.31,3.14,6,7,6s7-2.69,7-6C19,12,18,9.88,16.88,7.5Z" style="fill: none; stroke: rgb(0, 0, 0); stroke-linecap: round; stroke-linejoin: round; stroke-width: 2;"></path></svg>